<svg width="116" height="24" viewBox="0 0 116 24" fill="none" xmlns="http://www.w3.org/2000/svg">
<g clip-path="url(#clip0_539_31874)">
<path d="M30.6449 23.3383H25.2656V11.959H30.5622C32.838 11.959 34.3277 13.1176 34.3277 14.8969C34.3277 16.2211 33.6656 16.8831 32.838 17.3383C34.1622 17.8348 34.9484 18.5797 34.9484 20.1107C34.907 22.2624 33.2105 23.3383 30.6449 23.3383ZM31.8036 15.3107C31.8036 14.5659 31.2242 14.1521 30.1484 14.1521H27.707V16.5521H29.9829C31.0587 16.5521 31.8036 16.2211 31.8036 15.3107ZM32.4656 19.8211C32.4656 19.0762 31.8863 18.5797 30.5622 18.5797H27.707V21.1038H30.6449C31.7208 21.1452 32.4656 20.7314 32.4656 19.8211Z" fill="black"/>
<path d="M54.0243 23.338L52.9485 20.8139H48.1071L47.0312 23.338H44.5898L49.514 11.876H51.7898L56.714 23.338H54.0243ZM50.5485 14.8139L49.0588 18.4967H52.0795L50.5485 14.8139Z" fill="black"/>
<path d="M62.3423 23.5034C58.9906 23.5034 56.5078 20.8965 56.5078 17.5862C56.5078 14.3172 58.9492 11.6689 62.5078 11.6689C64.6182 11.6689 65.9423 12.4138 67.0182 13.4069L65.4457 15.2276C64.5354 14.4 63.6251 13.9034 62.5078 13.9034C60.6044 13.9034 59.2388 15.4758 59.2388 17.4207C59.2388 19.4069 60.563 21.0207 62.5078 21.0207C63.832 21.0207 64.6182 20.5241 65.5285 19.6965L67.1009 21.3517C65.9009 22.7586 64.5768 23.5034 62.3423 23.5034Z" fill="black"/>
<path d="M75.8733 23.3383L72.3561 18.4969L71.032 19.9038V23.4211H68.5078V11.959H71.032V16.9659L75.6251 11.959H78.6457L74.0113 16.8004L78.8526 23.3383H75.8733Z" fill="black"/>
<path d="M80.1348 23.3383V11.959H82.6589V21.0624H88.3279V23.3383H80.1348Z" fill="black"/>
<path d="M89.8184 23.3383V11.959H92.3425V23.3383H89.8184Z" fill="black"/>
<path d="M102.273 23.3383L96.7695 16.1383V23.3383H94.3281V11.959H96.604L101.942 18.9935V11.959H104.383V23.3383H102.273Z" fill="black"/>
<path d="M106.369 23.3383V11.959H114.976V14.1521H108.852V16.428H114.273V18.6211H108.852V20.9797H115.059V23.1728H106.369V23.3383Z" fill="black"/>
<path d="M44.2588 21.0624H38.5898V11.959H36.1484V23.3383H43.1829L44.2588 21.0624Z" fill="black"/>
<path d="M20.1762 11.1313L20.5072 9.76581H19.7624V5.75201H20.1762L20.5072 4.26236H19.7624V0.745117H0.355469V24.0003H19.7624V17.6279H20.1762L20.5072 16.1382H19.7624V11.1313H20.1762Z" fill="black"/>
<path d="M20.5065 1.82069V0H1.09961V7.11724C3.29271 9.02069 5.36168 10.9655 7.30651 13.1172C11.2375 8.85517 15.6651 5.08966 20.5065 1.82069Z" fill="#FAB834"/>
<path d="M20.5066 12.7863V9.76562C17.4031 12.4553 14.5066 15.6001 11.9824 18.8691C12.479 19.6139 13.0583 20.276 13.5548 20.9794C15.5824 18.0001 17.9824 15.3105 20.5066 12.7863Z" fill="#FAB834"/>
<path d="M8.87891 14.979C9.37546 15.641 9.95477 16.2203 10.4513 16.8824C13.472 13.1996 16.8237 9.84793 20.5065 6.95137V4.26172C16.2444 7.36517 12.3134 10.9652 8.87891 14.979Z" fill="#FAB834"/>
<path d="M8.8792 18.8274C8.38265 18.1653 7.80334 17.4205 7.30679 16.7998C6.72748 17.4619 6.23093 18.1239 5.73438 18.8274C6.31369 19.5722 6.81024 20.2343 7.30679 20.9377C7.80334 20.317 8.29989 19.5722 8.8792 18.8274Z" fill="#FAB834"/>
<path d="M10.4103 21.0625C9.91375 21.8073 9.33444 22.5522 8.83789 23.3384H11.8586C11.4034 22.5108 10.9069 21.8073 10.4103 21.0625Z" fill="#FAB834"/>
<path d="M4.20255 21.0625C3.70599 21.8073 3.20944 22.5522 2.71289 23.3384H5.73358C5.27841 22.5108 4.6991 21.8073 4.20255 21.0625Z" fill="#FAB834"/>
<path d="M15.0039 23.2547H20.5074V16.0547C18.5211 18.3305 16.6591 20.7306 15.0039 23.2547Z" fill="#FAB834"/>
<path d="M1.09961 20.9796C1.59616 20.2348 2.09271 19.5727 2.58926 18.8693C2.09271 18.1658 1.59616 17.5451 1.09961 16.9658V20.9796Z" fill="#FAB834"/>
<path d="M4.1203 16.8825C4.61685 16.2205 5.19616 15.5584 5.69271 14.9791C4.20306 13.2411 2.67202 11.7101 1.09961 10.1377V13.4067C2.17547 14.4825 3.1272 15.6411 4.1203 16.8825Z" fill="#FAB834"/>
</g>
<defs>
<clipPath id="clip0_539_31874">
<rect width="114.662" height="24" fill="white" transform="translate(0.355469)"/>
</clipPath>
</defs>
</svg>
