<svg width="123" height="24" viewBox="0 0 123 24" fill="none" xmlns="http://www.w3.org/2000/svg">
<g clip-path="url(#clip0_539_31860)">
<path d="M14.5845 4.5099L7.51489 9.01981L14.5845 13.5297L7.51489 18.0396L0.445312 13.5053L7.51489 8.99543L0.445312 4.5099L7.51489 0L14.5845 4.5099ZM7.47833 19.4901L14.5479 14.9802L21.6175 19.4901L14.5479 24L7.47833 19.4901ZM14.5845 13.5053L21.6541 8.99543L14.5845 4.5099L21.6175 0L28.6871 4.5099L21.6175 9.01981L28.6871 13.5297L21.6175 18.0396L14.5845 13.5053Z" fill="#0061FF"/>
<path d="M34.2324 4.50994H39.949C43.5935 4.50994 46.6042 6.61863 46.6042 11.4333V12.4449C46.6042 17.2961 43.7885 19.4779 40.0587 19.4779H34.2324V4.50994ZM37.4259 7.22808V16.7476H39.8759C41.948 16.7476 43.3376 15.3947 43.3376 12.384V11.5917C43.3376 8.58105 41.8749 7.22808 39.7662 7.22808H37.4259ZM48.2984 7.37434H50.8581L51.2725 10.19C51.7601 8.27632 53.0034 7.25245 55.2583 7.25245H56.0506V10.4825H54.7342C52.138 10.4825 51.5041 11.3845 51.5041 13.9442V19.5145H48.3472V7.37434H48.2984ZM56.6844 13.6882V13.3469C56.6844 9.28801 59.2807 7.06962 62.8155 7.06962C66.4234 7.06962 68.9465 9.28801 68.9465 13.3469V13.6882C68.9465 17.674 66.4965 19.8192 62.8155 19.8192C58.9028 19.7827 56.6844 17.6862 56.6844 13.6882ZM65.7164 13.6516V13.3469C65.7164 11.092 64.5829 9.739 62.7789 9.739C61.0115 9.739 59.8414 10.9823 59.8414 13.3469V13.6516C59.8414 15.8335 60.9749 17.0767 62.7789 17.0767C64.5829 17.0402 65.7164 15.8335 65.7164 13.6516ZM70.6042 7.37434H73.237L73.5417 9.66586C74.1755 8.13006 75.5285 7.06962 77.5275 7.06962C80.6113 7.06962 82.6469 9.288 82.6469 13.3957V13.737C82.6469 17.7227 80.3919 19.8314 77.5275 19.8314C75.6138 19.8314 74.2974 18.966 73.6514 17.5765V23.7075H70.5676L70.6042 7.37434ZM79.4412 13.6516V13.3835C79.4412 10.9701 78.1979 9.77556 76.5402 9.77556C74.7728 9.77556 73.6027 11.1285 73.6027 13.3835V13.6151C73.6027 15.7603 74.7362 17.1133 76.5036 17.1133C78.3198 17.0767 79.4412 15.9188 79.4412 13.6516ZM87.3152 17.2718L87.0471 19.4901H84.3411V3.31543H87.4249V9.51959C88.1075 7.93503 89.4605 7.06962 91.3741 7.06962C94.2751 7.10619 96.4203 9.10517 96.4203 13.1275V13.5054C96.4203 17.5277 94.3848 19.8314 91.301 19.8314C89.2654 19.7827 87.949 18.8441 87.3152 17.2718ZM93.1781 13.5054V13.2007C93.1781 10.9823 91.9714 9.739 90.2771 9.739C88.5463 9.739 87.3396 11.1285 87.3396 13.2372V13.5054C87.3396 15.7603 88.5097 17.0767 90.2406 17.0767C92.0933 17.0767 93.1781 15.9188 93.1781 13.5054ZM97.7733 13.6882V13.3469C97.7733 9.28801 100.37 7.06962 103.904 7.06962C107.512 7.06962 110.035 9.28801 110.035 13.3469V13.6882C110.035 17.674 107.549 19.8192 103.904 19.8192C99.9917 19.7827 97.7733 17.6862 97.7733 13.6882ZM106.83 13.6516V13.3469C106.83 11.092 105.696 9.739 103.892 9.739C102.125 9.739 100.955 10.9823 100.955 13.3469V13.6516C100.955 15.8335 102.088 17.0767 103.892 17.0767C105.708 17.0402 106.83 15.8335 106.83 13.6516ZM114.167 13.2007L109.913 7.37434H113.558L116.008 11.0188L118.494 7.37434H122.102L117.788 13.1641L122.334 19.4901H118.763L115.984 15.4678L113.278 19.4901H109.548L114.167 13.2007Z" fill="black"/>
</g>
<defs>
<clipPath id="clip0_539_31860">
<rect width="121.889" height="24" fill="white" transform="translate(0.445312)"/>
</clipPath>
</defs>
</svg>
