<svg width="81" height="24" viewBox="0 0 81 24" fill="none" xmlns="http://www.w3.org/2000/svg">
<path d="M19.4324 10.6382C15.5642 8.34109 9.18388 8.12987 5.49128 9.25059C4.89829 9.43042 4.27125 9.09568 4.09157 8.50273C3.9119 7.90948 4.24629 7.28285 4.83968 7.10259C9.07855 5.81579 16.125 6.06441 20.578 8.70778C21.1115 9.02432 21.2865 9.71314 20.9702 10.2458C20.6538 10.779 19.9644 10.9548 19.4324 10.6382ZM19.3057 14.0406C19.0344 14.481 18.4587 14.619 18.0189 14.3488C14.794 12.3665 9.87652 11.7922 6.06127 12.9503C5.56652 13.0998 5.04393 12.8209 4.8937 12.327C4.74457 11.8323 5.02367 11.3106 5.51754 11.1602C9.87596 9.83767 15.294 10.4782 18.9979 12.7544C19.4377 13.0252 19.5761 13.6013 19.3057 14.0406ZM17.8373 17.3082C17.6218 17.6617 17.1613 17.7726 16.8091 17.5571C13.9911 15.8349 10.4442 15.4458 6.26714 16.4C5.86457 16.4923 5.46346 16.24 5.3716 15.8376C5.27942 15.4351 5.53069 15.034 5.93415 14.9422C10.5052 13.8972 14.4263 14.3469 17.5893 16.2797C17.9419 16.495 18.053 16.9557 17.8373 17.3082ZM12.334 0C5.70673 0 0.333984 5.37243 0.333984 11.9998C0.333984 18.6277 5.70673 24 12.334 24C18.9616 24 24.3341 18.6277 24.3341 11.9998C24.3341 5.37243 18.9616 0 12.334 0Z" fill="#1ED760"/>
<path d="M32.9823 11.0779C30.9104 10.5838 30.5414 10.237 30.5414 9.50853C30.5414 8.81999 31.1897 8.35686 32.1535 8.35686C33.0878 8.35686 34.014 8.70865 34.9854 9.43287C35.0148 9.45479 35.0516 9.46353 35.0879 9.4578C35.1242 9.45236 35.1561 9.43258 35.1775 9.40249L36.1891 7.97641C36.2307 7.9178 36.2194 7.8367 36.1633 7.79185C35.0074 6.8643 33.7057 6.41334 32.1842 6.41334C29.947 6.41334 28.3844 7.75574 28.3844 9.67676C28.3844 11.7367 29.7324 12.466 32.0618 13.029C34.0444 13.4857 34.379 13.8682 34.379 14.5523C34.379 15.3101 33.7024 15.7813 32.6135 15.7813C31.4042 15.7813 30.4176 15.3739 29.3141 14.4183C29.2867 14.3948 29.2492 14.3839 29.2145 14.3859C29.1781 14.3889 29.1447 14.4058 29.1215 14.4337L27.9872 15.7837C27.9396 15.8398 27.9456 15.9234 28.0005 15.9718C29.2846 17.1181 30.8635 17.7236 32.5676 17.7236C34.9783 17.7236 36.536 16.4063 36.536 14.3677C36.536 12.6447 35.5066 11.6919 32.9823 11.0779Z" fill="#1ED760"/>
<path d="M43.7389 13.3876C43.7389 14.8425 42.8427 15.8577 41.5595 15.8577C40.2909 15.8577 39.334 14.7963 39.334 13.3876C39.334 11.979 40.2909 10.9175 41.5595 10.9175C42.8221 10.9175 43.7389 11.9561 43.7389 13.3876ZM41.989 9.03498C40.9441 9.03498 40.087 9.44652 39.3803 10.2898V9.34063C39.3803 9.26568 39.3195 9.20464 39.2446 9.20464H37.3895C37.3145 9.20464 37.2539 9.26568 37.2539 9.34063V19.8875C37.2539 19.9624 37.3145 20.0234 37.3895 20.0234H39.2446C39.3195 20.0234 39.3803 19.9624 39.3803 19.8875V16.5584C40.0871 17.3517 40.9443 17.7392 41.989 17.7392C43.9305 17.7392 45.8959 16.2446 45.8959 13.3876C45.8959 10.5299 43.9305 9.03498 41.989 9.03498Z" fill="#1ED760"/>
<path d="M50.9338 15.8724C49.6039 15.8724 48.6013 14.8038 48.6013 13.387C48.6013 11.9643 49.5692 10.9319 50.9032 10.9319C52.2417 10.9319 53.2511 12.0004 53.2511 13.4181C53.2511 14.8407 52.2765 15.8724 50.9338 15.8724ZM50.9338 9.03446C48.4335 9.03446 46.4746 10.9598 46.4746 13.4181C46.4746 15.8497 48.42 17.7549 50.9032 17.7549C53.4124 17.7549 55.3773 15.836 55.3773 13.387C55.3773 10.9463 53.4259 9.03446 50.9338 9.03446Z" fill="#1ED760"/>
<path d="M60.7167 9.20441H58.6751V7.11717C58.6751 7.04222 58.6147 6.98133 58.5397 6.98133H56.6848C56.6097 6.98133 56.5486 7.04222 56.5486 7.11717V9.20441H55.6566C55.5818 9.20441 55.5215 9.26545 55.5215 9.3404V10.9348C55.5215 11.0097 55.5818 11.0707 55.6566 11.0707H56.5486V15.1964C56.5486 16.8637 57.3785 17.709 59.015 17.709C59.6805 17.709 60.2326 17.5716 60.7529 17.2765C60.7952 17.2529 60.8216 17.2073 60.8216 17.1589V15.6406C60.8216 15.5936 60.7971 15.5495 60.7571 15.5249C60.7167 15.4996 60.6664 15.4983 60.625 15.5188C60.2676 15.6985 59.9221 15.7815 59.5359 15.7815C58.9408 15.7815 58.6751 15.5114 58.6751 14.9057V11.0707H60.7167C60.7916 11.0707 60.8519 11.0097 60.8519 10.9348V9.3404C60.8519 9.26545 60.7916 9.20441 60.7167 9.20441Z" fill="#1ED760"/>
<path d="M67.8302 9.21241V8.95605C67.8302 8.20189 68.1193 7.86557 68.7679 7.86557C69.1546 7.86557 69.4653 7.94238 69.8132 8.05845C69.8561 8.07192 69.9008 8.06518 69.9356 8.03953C69.9714 8.01388 69.9916 7.97276 69.9916 7.92919V6.36584C69.9916 6.30609 69.9532 6.25321 69.8958 6.23573C69.5282 6.12639 69.0579 6.01405 68.3538 6.01405C66.6401 6.01405 65.7345 6.979 65.7345 8.80358V9.19621H64.8432C64.7684 9.19621 64.707 9.25711 64.707 9.33206V10.9346C64.707 11.0095 64.7684 11.0705 64.8432 11.0705H65.7345V17.4343C65.7345 17.5092 65.7949 17.5701 65.8697 17.5701H67.7248C67.7998 17.5701 67.8608 17.5092 67.8608 17.4343V11.0705H69.593L72.2464 17.4326C71.9452 18.101 71.649 18.234 71.2446 18.234C70.9177 18.234 70.5736 18.1364 70.2216 17.9439C70.1885 17.9256 70.1494 17.9226 70.1136 17.9337C70.0782 17.9463 70.0484 17.9725 70.0333 18.0071L69.4045 19.3865C69.3746 19.4517 69.4001 19.5283 69.4629 19.5621C70.1193 19.9176 70.712 20.0693 71.4442 20.0693C72.8141 20.0693 73.5713 19.4311 74.2389 17.7144L77.4575 9.39754C77.4735 9.3557 77.4688 9.30856 77.4431 9.2713C77.4176 9.23462 77.3765 9.21241 77.3315 9.21241H75.4002C75.3424 9.21241 75.2906 9.24909 75.2716 9.3034L73.2932 14.9547L71.1261 9.29967C71.1063 9.24708 71.0557 9.21241 70.9994 9.21241H67.8302Z" fill="#1ED760"/>
<path d="M63.7059 9.20443H61.8507C61.7757 9.20443 61.7148 9.26548 61.7148 9.34042V17.4345C61.7148 17.5094 61.7757 17.5703 61.8507 17.5703H63.7059C63.7807 17.5703 63.8418 17.5094 63.8418 17.4345V9.34042C63.8418 9.26548 63.7807 9.20443 63.7059 9.20443Z" fill="#1ED760"/>
<path d="M62.7884 5.51869C62.0536 5.51869 61.457 6.1138 61.457 6.84862C61.457 7.58401 62.0536 8.17969 62.7884 8.17969C63.5231 8.17969 64.1189 7.58401 64.1189 6.84862C64.1189 6.1138 63.5231 5.51869 62.7884 5.51869Z" fill="#1ED760"/>
<path d="M79.1178 10.0094H78.7779V10.4429H79.1178C79.2875 10.4429 79.3888 10.3599 79.3888 10.226C79.3888 10.085 79.2875 10.0094 79.1178 10.0094ZM79.3382 10.6277L79.7075 11.1448H79.3961L79.0637 10.6706H78.7779V11.1448H78.5173V9.77429H79.1284C79.4467 9.77429 79.6562 9.93725 79.6562 10.2115C79.6562 10.4361 79.5264 10.5734 79.3382 10.6277ZM79.0488 9.31833C78.38 9.31833 77.8739 9.84981 77.8739 10.5009C77.8739 11.1516 78.3764 11.676 79.0419 11.676C79.7105 11.676 80.2171 11.1448 80.2171 10.4935C80.2171 9.84279 79.7142 9.31833 79.0488 9.31833ZM79.0419 11.8066C78.3076 11.8066 77.7363 11.2169 77.7363 10.5009C77.7363 9.78475 78.3151 9.18836 79.0488 9.18836C79.7829 9.18836 80.3543 9.77802 80.3543 10.4935C80.3543 11.2096 79.776 11.8066 79.0419 11.8066Z" fill="#1ED760"/>
</svg>
