<svg width="32" height="32" viewBox="0 0 32 32" fill="none" xmlns="http://www.w3.org/2000/svg">
<rect y="-0.000488281" width="32" height="32" rx="16" fill="#F5F6F8"/>
<path d="M18.8274 12.1059C18.8274 13.6373 17.5616 14.8787 16.0003 14.8787C14.439 14.8787 13.1732 13.6373 13.1732 12.1059C13.1732 10.5745 14.439 9.33301 16.0003 9.33301C17.5616 9.33301 18.8274 10.5745 18.8274 12.1059Z" fill="#404040"/>
<path d="M21.7147 18.5365V20.3065C21.0392 21.6655 18.7368 22.6663 16.0003 22.6663C13.2638 22.6663 10.9614 21.6655 10.2861 20.3065V18.5365C10.2861 17.2332 11.9703 15.8227 15.82 15.8227C19.6696 15.8227 21.7147 17.2332 21.7147 18.5365Z" fill="#404040"/>
</svg>
