<svg width="32" height="32" viewBox="0 0 32 32" fill="none" xmlns="http://www.w3.org/2000/svg">
<g clip-path="url(#clip0_702_30976)">
<path d="M4 6.625C4 5.17525 5.17525 4 6.625 4H25.375C26.8248 4 28 5.17525 28 6.625V9.625C28 10.2463 27.4963 10.75 26.875 10.75C26.2537 10.75 25.75 10.2463 25.75 9.625V6.625C25.75 6.4179 25.5821 6.25 25.375 6.25H6.625C6.4179 6.25 6.25 6.4179 6.25 6.625V25.375C6.25 25.5821 6.4179 25.75 6.625 25.75H26.875C27.4963 25.75 28 26.2537 28 26.875C28 27.4963 27.4963 28 26.875 28H6.625C5.17525 28 4 26.8248 4 25.375V6.625ZM16.375 12.625C16.9963 12.625 17.5 13.1287 17.5 13.75V19.75C17.5 21.2572 17.086 22.3876 16.2327 23.0986C15.4183 23.7772 14.4308 23.875 13.75 23.875C13.1287 23.875 12.625 23.3713 12.625 22.75C12.625 22.1287 13.1287 21.625 13.75 21.625C14.2693 21.625 14.5942 21.5353 14.7923 21.3701C14.9515 21.2374 15.25 20.8678 15.25 19.75V13.75C15.25 13.1287 15.7537 12.625 16.375 12.625ZM20.9135 13.8702C21.5416 13.1225 22.5261 12.625 23.875 12.625C25.1273 12.625 26.0722 13.0535 26.7091 13.7272C27.1358 14.1787 27.1157 14.8908 26.6642 15.3176C26.2127 15.7444 25.5007 15.7243 25.0739 15.2728C24.9091 15.0985 24.5806 14.875 23.875 14.875C23.124 14.875 22.7959 15.1275 22.6364 15.3173C22.4401 15.551 22.375 15.844 22.375 16C22.375 16.156 22.4401 16.449 22.6364 16.6827C22.7959 16.8725 23.124 17.125 23.875 17.125C23.9886 17.125 24.0982 17.1418 24.2014 17.1731C25.1961 17.3147 25.9479 17.7588 26.4615 18.3702C27.0526 19.0739 27.25 19.906 27.25 20.5C27.25 21.094 27.0526 21.9261 26.4615 22.6299C25.8334 23.3776 24.8489 23.875 23.5 23.875C22.2477 23.875 21.3028 23.4464 20.6659 22.7728C20.2392 22.3213 20.2593 21.6092 20.7108 21.1824C21.1623 20.7556 21.8743 20.7757 22.3011 21.2272C22.4659 21.4015 22.7944 21.625 23.5 21.625C24.251 21.625 24.5791 21.3724 24.7386 21.1826C24.9349 20.9489 25 20.656 25 20.5C25 20.344 24.9349 20.0511 24.7386 19.8174C24.5791 19.6276 24.251 19.375 23.5 19.375C23.3864 19.375 23.2768 19.3582 23.1736 19.3269C22.1789 19.1853 21.4271 18.7412 20.9135 18.1298C20.3224 17.426 20.125 16.594 20.125 16C20.125 15.406 20.3224 14.574 20.9135 13.8702Z" fill="black"/>
</g>
<defs>
<clipPath id="clip0_702_30976">
<rect width="24" height="24" fill="white" transform="translate(4 4)"/>
</clipPath>
</defs>
</svg>
